<?xml version="1.0" encoding="iso-8859-1"?>
<!-- Generator: Adobe Illustrator 19.0.0, SVG Export Plug-In . SVG Version: 6.00 Build 0)  -->
<svg version="1.1" id="Capa_1" xmlns="http://www.w3.org/2000/svg" xmlns:xlink="http://www.w3.org/1999/xlink" x="0px" y="0px"
	 viewBox="0 0 512 512" style="enable-background:new 0 0 512 512;" xml:space="preserve">
<g>
	<g>
		<g>
			<path d="M256,0C114.844,0,0,114.833,0,256s114.844,256,256,256s256-114.833,256-256S397.156,0,256,0z M138.438,64.229
				c3.26,0.083,12.552,4.521,22.906,10.667c-10.333,6.146-19.625,10.563-22.896,10.667c-5.885,0-10.667-4.792-10.667-10.667
				S132.563,64.229,138.438,64.229z M437.115,384.229c-5.885,0-10.667-4.792-10.667-10.646c0.083-3.271,4.521-12.563,10.667-22.917
				c6.146,10.333,10.583,19.646,10.667,22.917C447.771,379.458,442.99,384.229,437.115,384.229z M445.885,324.833
				c-3.979-5.75-13.563-5.75-17.542,0c-6.99,10.104-23.229,35.083-23.229,48.729c0,17.507,14.137,31.733,31.591,31.958
				C393.628,457.492,328.621,490.667,256,490.667C126.604,490.667,21.333,385.396,21.333,256
				c0-72.625,33.177-137.635,85.154-180.714c0.215,17.462,14.449,31.609,31.961,31.609c13.635,0,38.615-16.25,48.729-23.229
				c2.885-1.979,4.604-5.271,4.604-8.771s-1.719-6.792-4.604-8.771c-7.342-5.066-22.492-14.956-35.475-20.03
				C183.169,30.393,218.508,21.333,256,21.333c129.396,0,234.667,105.271,234.667,234.667c0,37.487-9.059,72.822-24.757,104.286
				C460.836,347.303,450.957,332.165,445.885,324.833z"/>
			<path d="M135.323,120.229c-4.167-4.167-10.917-4.167-15.083,0C83.969,156.5,64,204.708,64,256s19.969,99.5,56.24,135.771
				c37.427,37.438,86.594,56.146,135.76,56.146s98.333-18.708,135.76-56.146c4.167-4.167,4.167-10.917,0-15.083L135.323,120.229z
				 M256,426.667c-45.583,0-88.448-17.75-120.677-49.979c-32.24-32.229-49.99-75.104-49.99-120.688
				c0-42.021,15.073-81.708,42.677-112.917L368.906,384C337.708,411.604,298.01,426.667,256,426.667z"/>
			<path d="M219.229,126.875l85.333,42.667c1.521,0.75,3.146,1.125,4.771,1.125c2.76,0,5.49-1.083,7.542-3.125
				c3.25-3.25,4.052-8.208,2-12.313l-42.667-85.333c-2.635-5.25-9.052-7.438-14.313-4.771c-5.271,2.646-7.406,9.042-4.771,14.313
				l28.354,56.708l-56.708-28.354c-5.281-2.667-11.667-0.479-14.313,4.771C211.823,117.833,213.958,124.229,219.229,126.875z"/>
			<path d="M442.104,235.792l-85.333-42.667c-4.115-2.042-9.052-1.25-12.313,2c-3.25,3.25-4.052,8.208-2,12.313l42.667,85.333
				c1.875,3.729,5.635,5.896,9.552,5.896c1.604,0,3.229-0.354,4.76-1.125c5.271-2.646,7.406-9.042,4.771-14.313l-28.354-56.708
				l56.708,28.354c5.271,2.646,11.667,0.479,14.313-4.771C449.51,244.833,447.375,238.438,442.104,235.792z"/>
		</g>
	</g>
</g>
<g>
</g>
<g>
</g>
<g>
</g>
<g>
</g>
<g>
</g>
<g>
</g>
<g>
</g>
<g>
</g>
<g>
</g>
<g>
</g>
<g>
</g>
<g>
</g>
<g>
</g>
<g>
</g>
<g>
</g>
</svg>
